# xmcd CD database file
#
# Track frame offsets:
#	150
#	24879
#	41133
#	66658
#	99259
#	112694
#	127379
#	140318
#	164910
#	182700
#	202095
#	232005
#
# Disc length: 3320 seconds
#
# Revision: 0
# Processed by: cddbd v1.5PL3 Copyright (c) Steve Scherf et al.
# Submitted via: CDex 1.51
#
DISCID=b20cf60c
DTITLE=Steven Halpern - Among Friends
DYEAR=1988
DGENRE=New Age
TTITLE0=Touch With Your Heart
TTITLE1=Shared Vision
TTITLE2=Thigh Ch'i
TTITLE3=Natural Light
TTITLE4=Spectrum Suite
TTITLE5=Ivory Moon
TTITLE6=Threshold
TTITLE7=Hear To Eternity
TTITLE8=Apollo's Lyre
TTITLE9=Dawn
TTITLE10=Recollections
TTITLE11=Farewell To Atlantis
EXTD=YEAR: 1988
EXTT0=
EXTT1=
EXTT2=
EXTT3=
EXTT4=
EXTT5=
EXTT6=
EXTT7=
EXTT8=
EXTT9=
EXTT10=
EXTT11=
PLAYORDER=
